<svg width="24" height="24" viewBox="0 0 24 24" fill="none" xmlns="http://www.w3.org/2000/svg">
<path d="M4 16C4 17.1046 4.89543 18 6 18H8.5C8.77614 18 9 17.7761 9 17.5V16H15V17.5C15 17.7761 15.2239 18 15.5 18H18C19.1046 18 20 17.1046 20 16V6C20 4.89543 19.1046 4 18 4H6C4.89543 4 4 4.89543 4 6V16Z" stroke="#333333" stroke-width="2" stroke-linecap="round" stroke-linejoin="round"/>
<path d="M16 11H8" stroke="#333333" stroke-width="2" stroke-linecap="round" stroke-linejoin="round"/>
<circle cx="7" cy="19" r="2" stroke="#333333" stroke-width="2"/>
<circle cx="17" cy="19" r="2" stroke="#333333" stroke-width="2"/>
<path d="M4 12H20" stroke="#333333" stroke-width="2" stroke-linecap="round" stroke-linejoin="round"/>
</svg>